<svg width="32" height="29" viewBox="0 0 32 29" fill="none" xmlns="http://www.w3.org/2000/svg">
<g clip-path="url(#clip0_113_2)">
<path d="M22.3667 4.62228L27.3778 9.63339C27.5889 9.8445 27.5889 10.1889 27.3778 10.4001L15.2444 22.5334L10.0889 23.1056C9.4 23.1834 8.81667 22.6001 8.89444 21.9112L9.46667 16.7556L21.6 4.62228C21.8111 4.41117 22.1556 4.41117 22.3667 4.62228ZM31.3667 3.35006L28.6556 0.638949C27.8111 -0.205496 26.4389 -0.205496 25.5889 0.638949L23.6222 2.60562C23.4111 2.81673 23.4111 3.16117 23.6222 3.37228L28.6333 8.38339C28.8444 8.5945 29.1889 8.5945 29.4 8.38339L31.3667 6.41673C32.2111 5.56673 32.2111 4.1945 31.3667 3.35006V3.35006ZM21.3333 19.2334V24.8889H3.55556V7.11117H16.3222C16.5 7.11117 16.6667 7.03895 16.7944 6.91673L19.0167 4.6945C19.4389 4.27228 19.1389 3.55562 18.5444 3.55562H2.66667C1.19444 3.55562 0 4.75006 0 6.22228V25.7778C0 27.2501 1.19444 28.4445 2.66667 28.4445H22.2222C23.6944 28.4445 24.8889 27.2501 24.8889 25.7778V17.0112C24.8889 16.4167 24.1722 16.1223 23.75 16.5389L21.5278 18.7612C21.4056 18.8889 21.3333 19.0556 21.3333 19.2334Z" fill="white"/>
</g>
<defs>
<clipPath id="clip0_113_2">
<rect width="32" height="28.4444" fill="white"/>
</clipPath>
</defs>
</svg>
